<?xml version="1.0" encoding="UTF-8"?>
<!-- Generated by Pixelmator Pro 3.7.1 -->
<svg width="399" height="399" viewBox="0 0 399 399" xmlns="http://www.w3.org/2000/svg">
    <g id="layer1">
        <g id="g2504">
            <path id="White" fill="#ffffff" stroke="none" d="M 499 399 L -101 399 L -101 -1 L 499 -1 Z"/>
            <path id="use2832" fill="#1e3b8e" stroke="none" d="M -101 -1 L 499 -1 L 499 399 L -101 399 Z"/>
            <path id="path2469" fill="#ffffff" stroke="#1e3b8e" stroke-width="5" d="M 269.283386 239.122223 L 312.722076 372.810638 L 199 290.186615 L 85.277939 372.810638 L 128.716614 239.122223 L 14.994499 156.498535 L 155.562256 156.499649 L 199 22.811371 L 242.437744 156.499649 L 383.005493 156.498657 Z"/>
            <g id="lilly"/>
            <path id="path3455" fill="#1e3b8e" stroke="none" d="M 199.315674 100.213654 C 198.827515 100.244873 198.44751 100.649841 198.44751 101.139008 L 198.44751 101.487152 C 198.42868 101.519653 198.411865 101.553284 198.397125 101.58786 C 197.986053 102.612335 197.558014 103.713715 197.132721 104.801453 C 194.577423 110.384674 192.70282 116.589325 190.939301 121.931854 C 190.938507 121.932556 190.937805 121.93335 190.937012 121.934143 C 187.742096 131.646729 185.33252 141.933136 183.710602 150.104568 C 183.709595 150.109299 183.707001 150.115173 183.705872 150.120682 C 179.135803 165.537155 181.269745 179.700607 183.540955 192.675247 C 183.541748 192.679108 183.542511 192.683044 183.543304 192.686905 C 183.63559 193.183228 183.764191 193.695862 183.87085 194.194107 C 180.636841 189.624847 176.630615 184.736267 170.613647 179.365707 L 170.608917 179.365707 L 170.517365 179.2836 C 170.465607 179.236862 170.408722 179.196136 170.34787 179.162216 L 170.233429 179.097717 C 170.232635 179.097717 170.231842 179.097717 170.231049 179.097717 C 163.631287 175.417007 158.161224 172.57254 152.514297 171.511688 C 146.858078 170.44899 141.12175 171.336685 134.623474 174.784775 C 127.942612 178.329773 124.033218 183.813995 121.840393 188.807007 C 119.650055 193.794342 119.105576 198.233276 119.105576 200.389816 C 119.105576 202.543137 119.631729 207.80426 121.950333 213.415771 C 124.271713 219.034271 128.532196 225.015533 135.974854 227.403641 L 136.066467 227.432983 C 136.115723 227.44931 136.166321 227.461472 136.217636 227.469345 L 136.311554 227.483368 L 136.309189 227.483368 C 141.367035 228.242096 143.645905 228.525818 147.200348 227.705399 L 148.663956 227.366562 C 148.940613 227.302567 149.172592 227.115326 149.293625 226.858505 C 149.414658 226.601685 149.411362 226.303497 149.284683 226.049545 L 148.613922 224.693588 C 148.613922 224.693588 147.41301 222.289169 146.392181 219.196472 C 145.376358 216.119232 144.70575 212.281128 145.2332 210.259079 C 145.873962 207.802689 147.596024 204.697037 150.134796 202.567764 C 152.685516 200.428329 155.918427 199.157471 160.242615 199.933655 C 168.536469 201.422241 174.984924 209.582809 178.053284 217.776382 C 174.929077 219.910385 172.680634 223.490372 173.426544 227.2612 C 173.457245 230.065155 174.572998 232.490051 175.801758 234.260864 C 176.424896 235.158875 177.082611 235.902267 177.70285 236.478027 C 177.775208 236.544891 177.83606 236.591843 177.904388 236.652115 C 177.462128 238.598862 176.915649 240.153091 176.278168 240.866562 C 175.417175 241.829987 174.377441 242.311417 171.463623 241.975143 C 168.396545 241.621277 167.067139 240.945007 166.72464 240.694778 C 166.53067 240.553055 166.601379 240.591568 166.639832 240.666718 C 166.631226 240.649536 166.62207 240.632797 166.612396 240.616196 C 166.599945 240.595139 166.559875 240.536453 166.559723 240.536453 C 166.55957 240.536301 166.450012 240.410614 166.44986 240.410477 C 166.449707 240.410477 166.163696 240.227386 166.163544 240.227234 C 166.163483 240.227234 165.891052 240.160385 165.890991 240.160385 C 165.8909 240.160385 165.552063 240.194458 165.552002 240.194458 C 165.552002 240.194458 165.263458 240.336472 165.263397 240.336472 C 165.263397 240.336472 165.251373 240.348206 165.249725 240.348206 L 163.463165 240.366959 C 162.954315 240.371674 162.544464 240.785675 162.544678 241.294601 L 162.544678 241.316788 C 162.544617 241.321503 162.544617 241.326233 162.544678 241.330811 C 162.544678 241.330811 162.592865 244.986252 164.038055 248.827515 C 165.490723 252.68808 168.714691 257.090363 174.597107 257.542725 C 180.119568 257.967468 184.699493 255.263718 187.776459 251.36763 C 188.873016 257.6604 191.761139 265.36496 198.532471 273.898926 C 198.79129 274.224335 199.235016 274.337585 199.618164 274.176086 C 200.000031 274.335266 200.441071 274.222168 200.699249 273.898926 C 207.470795 265.364807 210.358734 257.660278 211.4552 251.36763 C 214.532166 255.263718 219.112091 257.967468 224.634613 257.542725 C 230.517822 257.09021 233.741364 252.686371 235.193665 248.825211 C 236.638245 244.983963 236.687042 241.330811 236.687042 241.330811 C 236.687042 241.326233 236.687042 241.321503 236.687042 241.316788 L 236.687042 241.294601 C 236.687347 240.785675 236.277344 240.371674 235.768585 240.366959 L 233.977448 240.348206 C 233.965698 240.336472 233.943359 240.318863 233.943359 240.318863 C 233.943359 240.31871 233.670807 240.190598 233.670807 240.190598 C 233.670654 240.190598 233.35257 240.16124 233.352417 240.16124 C 233.352417 240.16124 233.086884 240.221085 233.086731 240.221085 C 233.086578 240.221085 232.79599 240.401886 232.795837 240.402023 C 232.795685 240.402023 232.677032 240.532303 232.676727 240.53244 C 232.676605 240.53273 232.633362 240.594711 232.619324 240.616898 C 232.611877 240.628922 232.604858 240.640961 232.598145 240.653259 C 232.614594 240.623917 232.700226 240.55249 232.506653 240.694351 C 232.164246 240.94458 230.8349 241.62085 227.7677 241.974716 C 224.853943 242.310989 223.814209 241.829712 222.953125 240.866135 C 222.315674 240.152649 221.769257 238.598282 221.326904 236.651672 C 221.394897 236.590698 221.456024 236.544891 221.528473 236.4776 C 222.148743 235.90184 222.806396 235.158432 223.429565 234.260437 C 224.658386 232.489609 225.773987 230.064728 225.804779 227.260773 C 226.550751 223.489807 224.302216 219.909943 221.178101 217.775955 C 224.246399 209.582382 230.692627 201.421738 238.986389 199.933228 C 243.310638 199.156967 246.545776 200.427887 249.096497 202.567261 C 251.635345 204.696533 253.357361 207.802261 253.998108 210.258636 C 254.525635 212.280701 253.85495 216.118652 252.839142 219.196045 C 251.818298 222.288742 250.617371 224.693161 250.617371 224.693161 L 249.946259 226.037521 C 249.81958 226.291611 249.816284 226.589813 249.937408 226.846619 C 250.05835 227.103439 250.290405 227.290695 250.566986 227.354675 L 252.030609 227.693527 C 255.585114 228.513947 257.863831 228.230209 262.921906 227.471497 L 262.921906 227.471497 L 263.015656 227.457321 C 263.066925 227.449585 263.117584 227.437424 263.16684 227.421097 L 263.25589 227.391754 C 270.699738 225.004089 274.961029 219.022827 277.282684 213.403885 C 279.601349 207.792236 280.127441 202.531403 280.127441 200.37793 C 280.127441 198.221313 279.583038 193.782394 277.392639 188.79512 C 275.199799 183.802124 271.290405 178.31781 264.609558 174.772812 C 258.111206 171.324738 252.375031 170.437042 246.718719 171.499741 C 241.071869 172.560654 235.601654 175.40506 229.001984 179.085831 L 229.001984 179.085831 L 228.887024 179.15033 C 228.826172 179.18425 228.769348 179.224976 228.717529 179.271652 L 228.621307 179.358475 C 222.604401 184.72905 218.598114 189.617615 215.364105 194.186874 C 215.470825 193.688629 215.599396 193.175995 215.69165 192.679749 C 215.691711 192.675812 215.691711 192.671875 215.69165 192.668015 C 217.962708 179.693375 220.09671 165.529999 215.526672 150.113449 L 215.526672 150.097412 C 213.904938 141.925903 211.495239 131.639496 208.300232 121.926971 C 208.300232 121.926208 208.300232 121.925415 208.300232 121.924622 C 206.531586 116.566437 204.652954 110.339813 202.086121 104.743835 C 201.66748 103.672821 201.246979 102.588867 200.842499 101.580688 C 200.827728 101.546143 200.810852 101.512482 200.792023 101.479919 L 200.792023 101.131775 C 200.791382 100.84375 200.656891 100.572327 200.42804 100.397308 C 200.199219 100.222382 199.902039 100.163696 199.623871 100.238495 C 199.526337 100.211517 199.424957 100.200684 199.323914 100.206482 Z M 199.615662 110.172607 C 201.164856 114.264587 202.755035 118.610596 204.281464 123.25116 C 207.398499 132.726807 209.786102 142.892395 211.384125 150.945175 C 212.183167 154.971527 212.7854 158.470642 213.186737 161.091934 C 213.386566 162.399078 213.533386 163.527344 213.631073 164.358139 C 213.728424 165.188934 213.773102 165.851456 213.773102 165.780518 C 213.773102 167.891693 213.504333 181.329559 211.535309 191.912445 C 210.720978 196.289948 209.598358 201.137146 208.564575 205.565903 C 208.471954 205.771271 208.293091 206.081406 208.145416 206.454605 C 205.393921 213.38327 205.699127 217.966492 205.699127 217.966492 C 205.732117 218.420868 206.090454 218.784042 206.544312 218.82312 L 208.869263 219.026978 C 209.323944 219.066483 209.739807 218.76915 209.849518 218.326096 C 209.849518 218.326096 211.124023 213.172546 212.586639 206.924149 C 215.226105 200.748993 220.471771 192.349487 231.279114 182.663544 C 237.695007 179.092133 242.792999 176.538696 247.497894 175.654724 C 252.272949 174.757568 256.74353 175.383652 262.628723 178.506348 C 268.324249 181.528549 271.60965 186.142181 273.522186 190.496933 C 275.432007 194.845596 275.901978 199.032211 275.901978 200.380219 C 275.901978 201.724518 275.413818 206.869324 273.380157 211.791397 C 271.357269 216.687408 267.946747 221.391739 262.07901 223.323883 C 258.919739 223.795151 257.222382 223.883194 255.594696 223.768234 C 255.992676 222.812683 256.395355 221.88562 256.845306 220.522644 C 257.966339 217.126755 259.057159 212.914291 258.086731 209.194 C 257.21521 205.854004 255.13562 202.119766 251.810852 199.331268 C 248.475647 196.533966 243.77832 194.78476 238.239838 195.778748 C 227.265503 197.74855 219.861298 208.045914 216.661377 217.645828 L 216.407135 218.401672 C 216.287018 218.761002 216.397675 219.157394 216.686554 219.402618 L 217.295837 219.920258 C 217.322754 219.943298 217.350861 219.964783 217.38028 219.98468 C 218.833527 220.956833 220.027985 221.909805 220.767731 222.989761 C 221.507568 224.06987 221.85672 225.265198 221.610779 227.025574 C 221.603912 227.068085 221.599915 227.110886 221.59903 227.153839 C 221.59903 228.833603 220.85257 230.560608 219.956696 231.851715 C 219.508789 232.497208 219.02536 233.036179 218.653503 233.38176 C 218.512054 233.513031 218.335907 233.631134 218.202209 233.716019 C 218.181091 233.730194 218.158844 233.744217 218.137726 233.757095 L 217.324677 233.958527 C 216.849762 234.077194 216.548859 234.544586 216.637451 235.026016 L 216.836731 236.118423 C 217.359161 238.991104 217.995911 241.662216 219.800598 243.681686 C 221.636261 245.735809 224.554596 246.597458 228.245544 246.171432 C 229.691833 246.004791 230.763916 245.754852 231.697266 245.477417 C 231.560577 246.093124 231.486847 246.675049 231.236877 247.339569 C 230.661133 248.870316 229.880219 250.31044 228.786102 251.379944 C 227.691956 252.44931 226.302521 253.180115 224.305939 253.33371 C 220.139435 253.654083 216.940948 251.730957 214.509705 248.48938 C 213.473267 247.107513 212.654053 245.443207 212.010712 243.67482 C 211.75885 238.763489 210.494446 235.65361 210.494446 235.65361 C 210.321136 235.244614 209.882172 235.016006 209.447754 235.108475 L 207.182434 235.589478 C 206.753876 235.680237 206.447327 236.058441 206.447266 236.496506 C 206.447266 239.208557 206.951141 241.943222 207.825958 244.536041 C 207.856476 245.786774 207.858826 247.077728 207.690918 248.574127 C 207.111481 253.767319 205.030457 260.519897 199.612427 268.244629 C 194.194397 260.519897 192.113373 253.767319 191.533966 248.574127 C 191.366974 247.077454 191.368256 245.786484 191.398834 244.536041 C 192.273651 241.943222 192.777679 239.208557 192.777679 236.496506 C 192.777618 236.058441 192.470978 235.680237 192.04245 235.589478 L 189.777161 235.108475 C 189.342712 235.016006 188.903717 235.244614 188.730438 235.65361 C 188.730438 235.65361 187.466034 238.763489 187.214142 243.67482 C 186.570801 245.443207 185.751617 247.107513 184.71524 248.48938 C 182.283905 251.731094 179.08548 253.654083 174.918915 253.33371 C 172.922363 253.180115 171.532898 252.44931 170.438782 251.379944 C 169.344635 250.31044 168.563751 248.870316 167.987976 247.339569 C 167.714966 246.613632 167.626221 245.974014 167.48407 245.305634 C 168.4823 245.63002 169.345062 245.982895 170.979309 246.171432 C 174.670258 246.597458 177.588531 245.735809 179.424255 243.681686 C 181.229004 241.662216 181.865753 238.991241 182.388123 236.118423 L 182.388123 236.118423 L 182.587402 235.028168 C 182.676025 234.54689 182.375183 234.079483 181.900269 233.960815 L 181.087158 233.759399 C 181.06604 233.746506 181.044342 233.731186 181.02301 233.718307 C 180.889221 233.63385 180.713226 233.515167 180.571777 233.383896 C 180.199799 233.038467 179.716461 232.499496 179.268524 231.853867 C 178.372742 230.562912 177.626251 228.835754 177.626251 227.156128 C 177.626099 227.113174 177.622955 227.070374 177.616882 227.027863 C 177.370789 225.267487 177.71994 224.072159 178.459778 222.99205 C 179.199524 221.912109 180.394135 220.958984 181.847382 219.986969 C 181.876862 219.967072 181.905121 219.945602 181.932129 219.922409 L 182.541382 219.407196 C 182.831329 219.161545 182.942078 218.764008 182.820892 218.403824 L 182.56665 217.648117 L 182.56665 217.648117 C 179.366364 208.048767 171.961792 197.752991 160.988159 195.783325 C 155.449738 194.789337 150.752365 196.538544 147.417084 199.335846 C 144.092407 202.124344 142.012665 205.858582 141.141281 209.198593 C 140.170776 212.918869 141.261673 217.13118 142.382645 220.527237 C 142.832581 221.890198 143.235123 222.817261 143.633316 223.772827 C 142.005432 223.887772 140.308334 223.799728 137.148926 223.328476 C 131.281265 221.396317 127.870605 216.691986 125.847778 211.795975 C 123.814056 206.873764 123.325974 201.729095 123.325974 200.384811 C 123.325974 199.036789 123.795944 194.850174 125.705841 190.501511 C 127.618439 186.146774 130.903397 181.533127 136.599213 178.510925 C 142.48436 175.388168 146.955063 174.762146 151.730103 175.659302 C 156.434998 176.543274 161.532928 179.09671 167.948822 182.668121 C 178.756226 192.35408 184.001923 200.753571 186.641388 206.928741 C 188.103912 213.177124 189.378418 218.330673 189.378418 218.330673 C 189.48822 218.773743 189.904083 219.07106 190.358795 219.031555 L 192.683563 218.827698 C 193.137512 218.78862 193.495758 218.425446 193.528748 217.971069 C 193.528748 217.971069 193.834015 213.387848 191.082581 206.459198 C 190.934937 206.086136 190.756714 205.775909 190.663452 205.570496 C 189.629578 201.141739 188.506958 196.29454 187.692627 191.916946 C 185.723694 181.334137 185.454926 167.896271 185.454926 165.785095 C 185.454926 165.855682 185.496857 165.193451 185.594635 164.362717 C 185.692261 163.531921 185.841217 162.403595 186.04129 161.096512 C 186.442474 158.475296 187.0448 154.976105 187.843872 150.949753 C 189.441895 142.896973 191.829498 132.731384 194.946533 123.255737 C 196.472992 118.615173 198.063141 114.269104 199.612213 110.177185 Z"/>
        </g>
    </g>
</svg>
