<?xml version="1.0" encoding="UTF-8"?>
<svg width="6037" height="3089" viewBox="0 0 6037 3089" xmlns="http://www.w3.org/2000/svg">
  <path d="M0 3089L0 1616L142 1616L142 2065L143 2065L143 2066L144 2066L144 2065L318 2065L318 2997L319 2997L319 2998L503 2998L503 1883L667 1883L667 1473L717 1473L717 1403L860 1403L860 1473L948 1473L948 1472L949 1472L949 1110L1452 1110L1452 2069L1453 2069L1453 2070L1653 2070L1653 2986L1711 2986L1711 2681L1865 2681L1865 2499L1866 2499L1866 2498L1911 2498L1911 2499L1912 2499L1912 2498L1913 2498L1913 2256L1979 2256L1979 2255L1980 2255L1980 2149L2030 2149L2030 1634L2207 1634L2207 1633L2208 1633L2208 835L2293 835L2293 555L2366 555L2366 367L2428 367L2428 366L2429 366L2429 1L2498 1L2498 366L2499 366L2499 367L2571 367L2571 555L2638 555L2638 835L2725 835L2725 2514L2726 2514L2726 2515L2734 2515L2734 2514L2735 2514L2735 2447L2771 2447L2771 1872L2972 1872L2972 1359L3462 1359L3462 2337L3566 2337L3566 2474L3623 2474L3623 2648L3689 2648L3689 2903L3690 2903L3690 2904L3789 2904L3789 2903L3790 2903L3790 1699L4205 1699L4205 1148L4206 1148L4206 1147L4207 1147L4207 1148L4566 1148L4566 2523L4567 2523L4567 2524L4605 2524L4605 2072L4606 2072L4606 2071L4772 2071L4772 1504L5161 1504L5161 2253L5162 2253L5162 2254L5242 2254L5242 2253L5243 2253L5243 1990L5631 1990L5631 2777L5632 2777L5632 2776L5781 2776L5781 2304L5899 2304L5899 1616L6035 1616L6035 3088L6036 3088L6036 1616L6037 1616L6037 3089Z" fill="currentColor"/>
  <path d="M2429 1L2498 1L2498 366L2499 366L2499 367L2571 367L2571 555L2638 555L2638 835L2725 835L2725 2514L2726 2514L2726 2515L2734 2515L2734 2514L2735 2514L2735 2447L2771 2447L2771 1872L2972 1872L2972 1359L3462 1359L3462 2337L3566 2337L3566 2474L3623 2474L3623 2648L3689 2648L3689 2903L3690 2903L3690 2904L3789 2904L3789 2903L3790 2903L3790 1699L4205 1699L4205 1148L4206 1148L4206 1147L4207 1147L4207 1148L4566 1148L4566 2523L4567 2523L4567 2524L4605 2524L4605 2072L4606 2072L4606 2071L4772 2071L4772 1504L5161 1504L5161 2253L5162 2253L5162 2254L5242 2254L5242 2253L5243 2253L5243 1990L5631 1990L5631 2777L5632 2777L5632 2776L5781 2776L5781 2304L5899 2304L5899 1616L6037 1616L6037 1640L5924 1640L5924 1641L5923 1641L5923 2328L5805 2328L5805 2801L5607 2801L5607 2689L5544 2689L5544 2878L5392 2878L5392 2599L5286 2599L5286 2598L5285 2598L5285 2278L5089 2278L5089 2279L5088 2279L5088 2711L4978 2711L4978 3089L4954 3089L4954 2095L4630 2095L4630 2524L4786 2524L4786 3082L4785 3082L4785 3083L4784 3083L4784 3082L4762 3082L4762 2548L4761 2548L4761 2547L4542 2547L4542 1172L4230 1172L4230 3081L4229 3081L4229 3082L4206 3082L4206 3081L4205 3081L4205 1723L3814 1723L3814 1724L3813 1724L3813 3089L3790 3089L3790 2927L3665 2927L3665 2672L3599 2672L3599 2499L3597 2499L3597 2498L3544 2498L3544 2499L3543 2499L3543 2498L3542 2498L3542 2362L3462 2362L3462 3089L3438 3089L3438 1383L2996 1383L2996 3087L2995 3087L2995 3089L2972 3089L2972 2445L2971 2445L2971 2444L2885 2444L2885 2742L2884 2742L2884 2743L2821 2743L2821 2915L2820 2915L2820 2916L2750 2916L2750 2539L2303 2539L2303 2280L1937 2280L1937 2523L1889 2523L1889 2705L1736 2705L1736 2706L1735 2706L1735 3010L1552 3010L1552 2951L1341 2951L1341 2368L1340 2368L1340 2367L1085 2367L1085 1498L1084 1498L1084 1497L691 1497L691 1883L840 1883L840 2545L1014 2545L1014 2544L1017 2544L1017 2644L1016 2644L1016 2776L1200 2776L1200 3077L1177 3077L1177 2801L992 2801L992 2579L993 2579L993 2569L862 2569L862 2570L816 2570L816 1908L527 1908L527 3022L294 3022L294 2090L119 2090L119 2089L118 2089L118 1640L0 1640L0 1616L142 1616L142 2065L143 2065L143 2066L144 2066L144 2065L318 2065L318 2997L319 2997L319 2998L503 2998L503 1883L667 1883L667 1473L717 1473L717 1403L860 1403L860 1473L948 1473L948 1472L949 1472L949 1110L1452 1110L1452 2069L1453 2069L1453 2070L1653 2070L1653 2985L1652 2985L1652 2986L1711 2986L1711 2681L1865 2681L1865 2499L1866 2499L1866 2498L1911 2498L1911 2499L1912 2499L1912 2498L1913 2498L1913 2256L1979 2256L1979 2255L1980 2255L1980 2149L2030 2149L2030 1634L2207 1634L2207 1633L2208 1633L2208 835L2293 835L2293 555L2366 555L2366 367L2428 367L2428 366L2429 366ZM2452 25L2452 365L2474 365L2474 25ZM2390 390L2390 555L2546 555L2546 390ZM2317 579L2317 835L2614 835L2614 579ZM2232 859L2232 860L2231 860L2231 2255L2232 2255L2232 2256L2327 2256L2327 2514L2328 2514L2328 2515L2701 2515L2701 2513L2702 2513L2702 2512L2701 2512L2701 861L2702 861L2702 860L2701 860L2701 859ZM973 1134L973 1473L1109 1473L1109 2343L1364 2343L1364 2926L1365 2926L1365 2927L1428 2927L1428 1134ZM741 1427L741 1472L742 1472L742 1473L835 1473L835 1472L836 1472L836 1427ZM4796 1528L4796 2071L4978 2071L4978 2072L4979 2072L4979 2073L4978 2073L4978 2686L4979 2686L4979 2687L5064 2687L5064 2254L5137 2254L5137 1528ZM2054 1658L2054 2149L2171 2149L2171 2150L2172 2150L2172 2256L2207 2256L2207 2255L2208 2255L2208 1658ZM2796 1896L2796 2470L2795 2470L2795 2471L2759 2471L2759 2515L2774 2515L2774 2891L2797 2891L2797 2719L2860 2719L2860 2421L2861 2421L2861 2420L2972 2420L2972 1896ZM5268 2014L5268 2015L5267 2015L5267 2254L5309 2254L5309 2575L5416 2575L5416 2854L5520 2854L5520 2665L5606 2665L5606 2664L5607 2664L5607 2015L5606 2015L5606 2014ZM1452 2094L1452 2926L1453 2926L1453 2927L1576 2927L1576 2928L1577 2928L1577 2986L1628 2986L1628 2094ZM2004 2174L2004 2256L2148 2256L2148 2174Z" fill="currentColor" fill-rule="evenodd"/>
</svg>
